<svg width="708" height="192" viewBox="0 0 708 192" fill="none" xmlns="http://www.w3.org/2000/svg">
<path d="M0 96C0 42.9807 42.9807 0 96 0V0C149.019 0 192 42.9807 192 96V96C192 149.019 149.019 192 96 192V192C42.9807 192 0 149.019 0 96V96Z" fill="white"/>
<path d="M88.8434 125.368L71.9691 135.143L55.0947 125.368L71.9691 115.476L88.8434 125.368Z" fill="#64B5F6"/>
<path d="M134.928 125.368L118.054 135.143L101.179 125.368L118.054 115.476L134.928 125.368Z" fill="#1A237E"/>
<path d="M111.886 139.1L95.0113 148.876L78.137 139.1L95.0113 129.208L111.886 139.1Z" fill="#64B5F6"/>
<path d="M53 150.738V131.07L70.1071 141.079V160.746L53 150.738Z" fill="#64B5F6"/>
<path d="M75.1113 163.539V143.872L92.2184 153.88V173.547L75.1113 163.539Z" fill="#64B5F6"/>
<path d="M138.07 149.923V130.139L120.963 140.264V159.931L138.07 149.923Z" fill="#1A237E"/>
<path d="M115.028 163.655V143.872L97.9204 153.996V173.664L115.028 163.655Z" fill="#1A237E"/>
<path d="M123.219 81.3709C128.859 81.3137 131.274 80.1406 134.29 76.1561C135.362 74.9707 136.073 74.9839 137.462 75.7863C138.592 76.7437 137.968 79.6499 135.343 84.6274C134.118 86.7089 132.231 88.661 129.347 90.9553C121.82 94.8599 117.457 94.7935 109.482 91.8341C110.194 94.2374 111.137 95.7032 114.032 98.2361C116.926 100.769 124.051 99.3683 125.05 99.1869C126.049 99.0056 126.655 100.075 126.655 100.075C127.195 101.729 126.365 102.809 123.219 104.955C118.442 107.82 115.15 108.339 108.291 107.584C104.642 106.561 102.88 105.609 100.213 103.294C97.8388 101.381 96.9512 99.9258 95.5791 97.1488C90.7686 104.184 87.4244 107.043 79.0026 108C71.1062 107.492 68.4445 106.182 64.9947 103.091C63.3382 101.922 63.3072 101.188 64.1329 99.8061C64.3466 99.4486 64.6721 99.2708 65.3802 99.1432C65.9074 99.0482 67.4274 99.5274 68.3321 99.6341C75.0551 100.428 77.6234 98.0513 81.0145 91.8341C74.6553 94.3252 71.1986 94.863 65.3802 92.9309C58.6318 89.7877 56.4325 87.4358 54.3598 82.5523C54.3598 82.5523 52.2282 78.0379 53.3026 75.7033C53.3452 75.6108 53.375 75.1832 54.8646 75.0597C54.9893 75.0494 55.1081 75.0733 55.2248 75.1268C61.5231 78.0099 69.8667 84.8553 73.142 78.7518V78.7518C73.142 78.7518 76.3352 77.1436 75.2095 73.5319C70.5861 58.6974 61.2732 18 95.4162 18C128.899 18 121.392 54.9661 116.644 70.7162C116.298 71.6517 115.009 74.9418 115.1 75.9115C115.238 77.3831 115.947 77.5921 117.601 78.7518C119.91 80.5818 122.609 81.3709 123.219 81.3709Z" fill="#1A237E"/>
<path d="M86.672 69.252C86.672 70.4651 87.6552 71.4485 88.868 71.4485C90.0809 71.4485 91.064 70.4651 91.064 69.252C91.064 68.0389 90.0809 67.0555 88.868 67.0555C87.6552 67.0555 86.672 68.0389 86.672 69.252Z" fill="white"/>
<path d="M99.8081 69.252C99.8081 70.4651 100.791 71.4485 102.004 71.4485C103.217 71.4485 104.2 70.4651 104.2 69.252C104.2 68.0389 103.217 67.0555 102.004 67.0555C100.791 67.0555 99.8081 68.0389 99.8081 69.252Z" fill="white"/>
<path d="M236.625 146V55H259.125C263.042 55 266.729 55.4583 270.188 56.375C273.646 57.25 276.792 58.4792 279.625 60.0625C282.708 61.6875 285.438 63.7292 287.812 66.1875C290.229 68.6458 292.25 71.3958 293.875 74.4375C295.542 77.6042 296.833 81.0833 297.75 84.875C298.667 88.6667 299.125 92.7083 299.125 97V104.125C299.125 108.25 298.688 112.167 297.812 115.875C296.979 119.542 295.771 122.896 294.188 125.938C292.646 128.896 290.771 131.583 288.562 134C286.396 136.417 283.979 138.479 281.312 140.188C278.312 142.062 274.979 143.5 271.312 144.5C267.688 145.5 263.792 146 259.625 146H236.625ZM251.812 67.25V133.812H259.625C262.292 133.812 264.729 133.5 266.938 132.875C269.188 132.208 271.208 131.271 273 130.062C274.833 128.812 276.458 127.25 277.875 125.375C279.333 123.458 280.521 121.271 281.438 118.812C282.229 116.729 282.833 114.458 283.25 112C283.667 109.542 283.875 106.917 283.875 104.125V96.875C283.875 94.125 283.667 91.5208 283.25 89.0625C282.833 86.6042 282.229 84.3333 281.438 82.25C280.438 79.7083 279.104 77.4167 277.438 75.375C275.771 73.2917 273.792 71.6042 271.5 70.3125C269.833 69.3542 267.958 68.625 265.875 68.125C263.792 67.5833 261.542 67.2917 259.125 67.25H251.812ZM375.625 118C375.208 122.417 374.167 126.438 372.5 130.062C370.833 133.646 368.646 136.708 365.938 139.25C363.188 141.833 359.917 143.833 356.125 145.25C352.375 146.625 348.208 147.312 343.625 147.312C339.875 147.312 336.417 146.812 333.25 145.812C330.125 144.771 327.333 143.312 324.875 141.438C322.5 139.688 320.417 137.583 318.625 135.125C316.875 132.625 315.396 129.896 314.188 126.938C312.979 124.021 312.062 120.854 311.438 117.438C310.854 114.021 310.562 110.458 310.562 106.75V94.3125C310.562 90.7708 310.854 87.3542 311.438 84.0625C312.021 80.7708 312.896 77.6667 314.062 74.75C315.312 71.5 316.917 68.5625 318.875 65.9375C320.875 63.2708 323.167 61 325.75 59.125C328.208 57.4167 330.917 56.0833 333.875 55.125C336.875 54.1667 340.146 53.6875 343.688 53.6875C348.479 53.6875 352.75 54.3958 356.5 55.8125C360.292 57.2292 363.521 59.2292 366.188 61.8125C368.896 64.4375 371.021 67.6042 372.562 71.3125C374.146 75.0208 375.167 79.1458 375.625 83.6875H360.625C360.375 80.9792 359.854 78.5417 359.062 76.375C358.312 74.1667 357.271 72.2917 355.938 70.75C354.562 69.2083 352.875 68.0417 350.875 67.25C348.875 66.4167 346.479 66 343.688 66C341.729 66 339.958 66.2708 338.375 66.8125C336.833 67.3542 335.458 68.125 334.25 69.125C332.583 70.3333 331.188 71.9167 330.062 73.875C328.979 75.7917 328.083 77.9375 327.375 80.3125C326.833 82.3958 326.417 84.625 326.125 87C325.875 89.3333 325.75 91.7292 325.75 94.1875V106.75C325.75 109.792 325.917 112.646 326.25 115.312C326.625 117.979 327.188 120.417 327.938 122.625C328.521 124.458 329.25 126.125 330.125 127.625C331.042 129.125 332.125 130.417 333.375 131.5C334.667 132.667 336.146 133.562 337.812 134.188C339.521 134.771 341.458 135.062 343.625 135.062C346.208 135.062 348.5 134.688 350.5 133.938C352.5 133.188 354.208 132.083 355.625 130.625C357 129.208 358.104 127.438 358.938 125.312C359.771 123.188 360.312 120.75 360.562 118H375.625ZM407.438 133.625H450.875V146H392.375V55H407.438V133.625ZM471.75 78.375H507.625V133.625H527.5V146H471.75V133.625H492.562V90.8125H471.75V78.375ZM491.188 60.875C491.188 59.6667 491.396 58.5625 491.812 57.5625C492.229 56.5208 492.833 55.625 493.625 54.875C494.375 54.1667 495.271 53.625 496.312 53.25C497.396 52.8333 498.604 52.625 499.938 52.625C502.188 52.625 504 53.2083 505.375 54.375C506.792 55.5 507.604 56.9583 507.812 58.75C508.104 60.5833 507.792 62.1875 506.875 63.5625C505.958 64.8958 504.625 65.7917 502.875 66.25C502 67.0417 500.958 67.5625 499.75 67.8125C498.542 68.0625 497.208 67.9583 495.75 67.5C494.25 67.0417 493.104 66.2292 492.312 65.0625C491.562 63.8542 491.188 62.4583 491.188 60.875ZM545.188 146V78.375H558.688L559.625 88C560.542 86.7083 561.542 85.5208 562.625 84.4375C563.75 83.3125 564.938 82.3125 566.188 81.4375C568.188 80.0625 570.375 79 572.75 78.25C575.125 77.5 577.625 77.125 580.25 77.125C583.708 77.125 586.875 77.625 589.75 78.625C592.625 79.625 595.083 81.2083 597.125 83.375C599.167 85.5417 600.75 88.3125 601.875 91.6875C603 95.0208 603.562 99.0625 603.562 103.812V146H588.625V104.062C588.625 101.271 588.312 98.9375 587.688 97.0625C587.062 95.1875 586.146 93.6875 584.938 92.5625C583.729 91.4375 582.271 90.6458 580.562 90.1875C578.854 89.6875 576.896 89.4375 574.688 89.4375C572.854 89.4375 571.146 89.6875 569.562 90.1875C567.979 90.6458 566.542 91.3125 565.25 92.1875C564.25 92.8542 563.312 93.6667 562.438 94.625C561.562 95.5833 560.792 96.625 560.125 97.75V146H545.188ZM652.062 61.875V78.375H677.5V89.5625H652.062V121.875C652.062 124.375 652.354 126.479 652.938 128.188C653.562 129.854 654.417 131.167 655.5 132.125C656.583 133.125 657.875 133.833 659.375 134.25C660.875 134.667 662.521 134.875 664.312 134.875C665.604 134.875 666.938 134.812 668.312 134.688C669.688 134.562 671.021 134.396 672.312 134.188C673.562 134.021 674.729 133.833 675.812 133.625C676.938 133.375 677.875 133.167 678.625 133L680.25 143.312C679.167 143.979 677.854 144.562 676.312 145.062C674.812 145.521 673.188 145.917 671.438 146.25C669.688 146.583 667.854 146.833 665.938 147C664.062 147.208 662.188 147.312 660.312 147.312C656.896 147.312 653.75 146.854 650.875 145.938C648.042 144.979 645.604 143.5 643.562 141.5C641.521 139.542 639.917 137.021 638.75 133.938C637.625 130.854 637.062 127.146 637.062 122.812V89.5625H620.688V78.375H637.062V61.875H652.062Z" fill="black"/>
</svg>
