<svg width="728" height="232" viewBox="0 0 728 232" fill="none" xmlns="http://www.w3.org/2000/svg">
<g filter="url(#filter0_d_19_443)">
<path d="M20 112C20 58.9807 62.9807 16 116 16C169.019 16 212 58.9807 212 112C212 165.019 169.019 208 116 208C62.9807 208 20 165.019 20 112Z" fill="white"/>
<path d="M108.843 141.368L91.9691 151.143L75.0947 141.368L91.9691 131.476L108.843 141.368Z" fill="#64B5F6"/>
<path d="M154.928 141.368L138.054 151.143L121.179 141.368L138.054 131.476L154.928 141.368Z" fill="#1A237E"/>
<path d="M131.886 155.1L115.011 164.876L98.1368 155.1L115.011 145.208L131.886 155.1Z" fill="#64B5F6"/>
<path d="M73 166.738V147.07L90.1071 157.079V176.746L73 166.738Z" fill="#64B5F6"/>
<path d="M95.1112 179.539V159.872L112.218 169.88V189.547L95.1112 179.539Z" fill="#64B5F6"/>
<path d="M158.07 165.923V146.139L140.963 156.264V175.931L158.07 165.923Z" fill="#1A237E"/>
<path d="M135.028 179.655V159.872L117.921 169.996V189.664L135.028 179.655Z" fill="#1A237E"/>
<path d="M143.219 97.3709C148.859 97.3137 151.274 96.1406 154.29 92.1561C155.362 90.9707 156.073 90.9839 157.462 91.7863C158.592 92.7437 157.968 95.6499 155.343 100.627C154.118 102.709 152.231 104.661 149.347 106.955C141.82 110.86 137.457 110.794 129.482 107.834C130.194 110.237 131.137 111.703 134.032 114.236C136.926 116.769 144.051 115.368 145.05 115.187C146.049 115.006 146.655 116.075 146.655 116.075C147.195 117.729 146.365 118.809 143.219 120.955C138.442 123.82 135.15 124.339 128.291 123.584C124.642 122.561 122.88 121.609 120.213 119.294C117.839 117.381 116.951 115.926 115.579 113.149C110.769 120.184 107.424 123.043 99.0026 124C91.1062 123.492 88.4445 122.182 84.9947 119.091C83.3382 117.922 83.3072 117.188 84.1329 115.806C84.3466 115.449 84.6721 115.271 85.3802 115.143C85.9074 115.048 87.4274 115.527 88.3321 115.634C95.0551 116.428 97.6234 114.051 101.015 107.834C94.6553 110.325 91.1986 110.863 85.3802 108.931C78.6318 105.788 76.4325 103.436 74.3598 98.5523C74.3598 98.5523 72.2282 94.0379 73.3026 91.7033C73.3452 91.6107 73.375 91.1832 74.8646 91.0597C74.9893 91.0494 75.1081 91.0733 75.2248 91.1268C81.5231 94.0099 89.8667 100.855 93.142 94.7518C93.142 94.7518 96.3352 93.1436 95.2095 89.5319C90.5861 74.6974 81.2732 34 115.416 34C148.899 34 141.392 70.9661 136.644 86.7162C136.298 87.6517 135.009 90.9418 135.1 91.9115C135.238 93.3831 135.947 93.5921 137.601 94.7518C139.91 96.5818 142.609 97.3709 143.219 97.3709Z" fill="#1A237E"/>
<path d="M106.672 85.252C106.672 86.4651 107.655 87.4485 108.868 87.4485C110.081 87.4485 111.064 86.4651 111.064 85.252C111.064 84.0389 110.081 83.0555 108.868 83.0555C107.655 83.0555 106.672 84.0389 106.672 85.252Z" fill="white"/>
<path d="M119.808 85.252C119.808 86.4651 120.791 87.4485 122.004 87.4485C123.217 87.4485 124.2 86.4651 124.2 85.252C124.2 84.0389 123.217 83.0555 122.004 83.0555C120.791 83.0555 119.808 84.0389 119.808 85.252Z" fill="white"/>
</g>
<path d="M256.625 162V71H279.125C283.042 71 286.729 71.4583 290.188 72.375C293.646 73.25 296.792 74.4792 299.625 76.0625C302.708 77.6875 305.438 79.7292 307.812 82.1875C310.229 84.6458 312.25 87.3958 313.875 90.4375C315.542 93.6042 316.833 97.0833 317.75 100.875C318.667 104.667 319.125 108.708 319.125 113V120.125C319.125 124.25 318.688 128.167 317.812 131.875C316.979 135.542 315.771 138.896 314.188 141.938C312.646 144.896 310.771 147.583 308.562 150C306.396 152.417 303.979 154.479 301.312 156.188C298.312 158.062 294.979 159.5 291.312 160.5C287.688 161.5 283.792 162 279.625 162H256.625ZM271.812 83.25V149.812H279.625C282.292 149.812 284.729 149.5 286.938 148.875C289.188 148.208 291.208 147.271 293 146.062C294.833 144.812 296.458 143.25 297.875 141.375C299.333 139.458 300.521 137.271 301.438 134.812C302.229 132.729 302.833 130.458 303.25 128C303.667 125.542 303.875 122.917 303.875 120.125V112.875C303.875 110.125 303.667 107.521 303.25 105.062C302.833 102.604 302.229 100.333 301.438 98.25C300.438 95.7083 299.104 93.4167 297.438 91.375C295.771 89.2917 293.792 87.6042 291.5 86.3125C289.833 85.3542 287.958 84.625 285.875 84.125C283.792 83.5833 281.542 83.2917 279.125 83.25H271.812ZM395.625 134C395.208 138.417 394.167 142.438 392.5 146.062C390.833 149.646 388.646 152.708 385.938 155.25C383.188 157.833 379.917 159.833 376.125 161.25C372.375 162.625 368.208 163.312 363.625 163.312C359.875 163.312 356.417 162.812 353.25 161.812C350.125 160.771 347.333 159.312 344.875 157.438C342.5 155.688 340.417 153.583 338.625 151.125C336.875 148.625 335.396 145.896 334.188 142.938C332.979 140.021 332.062 136.854 331.438 133.438C330.854 130.021 330.562 126.458 330.562 122.75V110.312C330.562 106.771 330.854 103.354 331.438 100.062C332.021 96.7708 332.896 93.6667 334.062 90.75C335.312 87.5 336.917 84.5625 338.875 81.9375C340.875 79.2708 343.167 77 345.75 75.125C348.208 73.4167 350.917 72.0833 353.875 71.125C356.875 70.1667 360.146 69.6875 363.688 69.6875C368.479 69.6875 372.75 70.3958 376.5 71.8125C380.292 73.2292 383.521 75.2292 386.188 77.8125C388.896 80.4375 391.021 83.6042 392.562 87.3125C394.146 91.0208 395.167 95.1458 395.625 99.6875H380.625C380.375 96.9792 379.854 94.5417 379.062 92.375C378.312 90.1667 377.271 88.2917 375.938 86.75C374.562 85.2083 372.875 84.0417 370.875 83.25C368.875 82.4167 366.479 82 363.688 82C361.729 82 359.958 82.2708 358.375 82.8125C356.833 83.3542 355.458 84.125 354.25 85.125C352.583 86.3333 351.188 87.9167 350.062 89.875C348.979 91.7917 348.083 93.9375 347.375 96.3125C346.833 98.3958 346.417 100.625 346.125 103C345.875 105.333 345.75 107.729 345.75 110.188V122.75C345.75 125.792 345.917 128.646 346.25 131.312C346.625 133.979 347.188 136.417 347.938 138.625C348.521 140.458 349.25 142.125 350.125 143.625C351.042 145.125 352.125 146.417 353.375 147.5C354.667 148.667 356.146 149.562 357.812 150.188C359.521 150.771 361.458 151.062 363.625 151.062C366.208 151.062 368.5 150.688 370.5 149.938C372.5 149.188 374.208 148.083 375.625 146.625C377 145.208 378.104 143.438 378.938 141.312C379.771 139.188 380.312 136.75 380.562 134H395.625ZM427.438 149.625H470.875V162H412.375V71H427.438V149.625ZM491.75 94.375H527.625V149.625H547.5V162H491.75V149.625H512.562V106.812H491.75V94.375ZM511.188 76.875C511.188 75.6667 511.396 74.5625 511.812 73.5625C512.229 72.5208 512.833 71.625 513.625 70.875C514.375 70.1667 515.271 69.625 516.312 69.25C517.396 68.8333 518.604 68.625 519.938 68.625C522.188 68.625 524 69.2083 525.375 70.375C526.792 71.5 527.604 72.9583 527.812 74.75C528.104 76.5833 527.792 78.1875 526.875 79.5625C525.958 80.8958 524.625 81.7917 522.875 82.25C522 83.0417 520.958 83.5625 519.75 83.8125C518.542 84.0625 517.208 83.9583 515.75 83.5C514.25 83.0417 513.104 82.2292 512.312 81.0625C511.562 79.8542 511.188 78.4583 511.188 76.875ZM565.188 162V94.375H578.688L579.625 104C580.542 102.708 581.542 101.521 582.625 100.438C583.75 99.3125 584.938 98.3125 586.188 97.4375C588.188 96.0625 590.375 95 592.75 94.25C595.125 93.5 597.625 93.125 600.25 93.125C603.708 93.125 606.875 93.625 609.75 94.625C612.625 95.625 615.083 97.2083 617.125 99.375C619.167 101.542 620.75 104.312 621.875 107.688C623 111.021 623.562 115.062 623.562 119.812V162H608.625V120.062C608.625 117.271 608.312 114.938 607.688 113.062C607.062 111.188 606.146 109.688 604.938 108.562C603.729 107.438 602.271 106.646 600.562 106.188C598.854 105.688 596.896 105.438 594.688 105.438C592.854 105.438 591.146 105.688 589.562 106.188C587.979 106.646 586.542 107.312 585.25 108.188C584.25 108.854 583.312 109.667 582.438 110.625C581.562 111.583 580.792 112.625 580.125 113.75V162H565.188ZM672.062 77.875V94.375H697.5V105.562H672.062V137.875C672.062 140.375 672.354 142.479 672.938 144.188C673.562 145.854 674.417 147.167 675.5 148.125C676.583 149.125 677.875 149.833 679.375 150.25C680.875 150.667 682.521 150.875 684.312 150.875C685.604 150.875 686.938 150.812 688.312 150.688C689.688 150.562 691.021 150.396 692.312 150.188C693.562 150.021 694.729 149.833 695.812 149.625C696.938 149.375 697.875 149.167 698.625 149L700.25 159.312C699.167 159.979 697.854 160.562 696.312 161.062C694.812 161.521 693.188 161.917 691.438 162.25C689.688 162.583 687.854 162.833 685.938 163C684.062 163.208 682.188 163.312 680.312 163.312C676.896 163.312 673.75 162.854 670.875 161.938C668.042 160.979 665.604 159.5 663.562 157.5C661.521 155.542 659.917 153.021 658.75 149.938C657.625 146.854 657.062 143.146 657.062 138.812V105.562H640.688V94.375H657.062V77.875H672.062Z" fill="black"/>
<defs>
<filter id="filter0_d_19_443" x="0" y="0" width="232" height="232" filterUnits="userSpaceOnUse" color-interpolation-filters="sRGB">
<feFlood flood-opacity="0" result="BackgroundImageFix"/>
<feColorMatrix in="SourceAlpha" type="matrix" values="0 0 0 0 0 0 0 0 0 0 0 0 0 0 0 0 0 0 127 0" result="hardAlpha"/>
<feMorphology radius="16" operator="dilate" in="SourceAlpha" result="effect1_dropShadow_19_443"/>
<feOffset dy="4"/>
<feGaussianBlur stdDeviation="2"/>
<feComposite in2="hardAlpha" operator="out"/>
<feColorMatrix type="matrix" values="0 0 0 0 0 0 0 0 0 0 0 0 0 0 0 0 0 0 0.25 0"/>
<feBlend mode="normal" in2="BackgroundImageFix" result="effect1_dropShadow_19_443"/>
<feBlend mode="normal" in="SourceGraphic" in2="effect1_dropShadow_19_443" result="shape"/>
</filter>
</defs>
</svg>
